<?xml version="1.0" encoding="UTF-8"?>
<svg width="20px" height="20px" viewBox="0 0 20 20" version="1.1" xmlns="http://www.w3.org/2000/svg" xmlns:xlink="http://www.w3.org/1999/xlink">
    <!-- Generator: Sketch 51.3 (57544) - http://www.bohemiancoding.com/sketch -->
    <title>形状</title>
    <desc>Created with Sketch.</desc>
    <defs></defs>
    <g id="形状" stroke="none" stroke-width="1" fill="none" fill-rule="evenodd">
        <path d="M15.5625,13.125 L14.125,13.125 L14.125,10.25 L15.5625,10.25 L15.5625,13.125 Z M15.5625,17.3125 L14.125,17.3125 L14.125,14.4375 L15.5625,14.4375 L15.5625,17.3125 Z M11.125,15.25 C11.125,15.25 11.125,15.3125 11.125,15.25 L8.3125,15.25 L8.3125,13.5 L11.125,13.5 L11.125,15.25 Z M8.25,8.8125 C8.25,8.8125 8.3125,8.8125 8.25,8.8125 L11.0625,8.8125 L11.0625,10.625 L8.25,10.625 L8.25,8.8125 Z M6.4375,5.9375 L3.625,5.9375 L3.625,4.1875 L6.4375,4.1875 L6.4375,5.9375 Z M6.4375,10.625 L3.625,10.625 L3.625,8.875 L6.4375,8.875 L6.4375,10.625 Z M6.4375,15.25 C6.4375,15.25 6.4375,15.3125 6.4375,15.25 L3.625,15.25 L3.625,13.5 L6.4375,13.5 L6.4375,15.25 Z M8.25,4.1875 C8.25,4.125 8.3125,4.125 8.25,4.1875 L11.0625,4.1875 L11.0625,5.9375 L8.25,5.9375 L8.25,4.1875 Z M19.3125,18.5625 L18.25,18.5625 L18.25,9.6875 C18.25,8.8125 17.6875,8.0625 16.875,7.8125 L12.9375,6.5625 L12.9375,1 C12.9375,0.4375 12.5,0 11.9375,0 L2.75,0 C2.1875,0 1.75,0.4375 1.75,1 L1.75,18.5625 L0.6875,18.5625 C0.3125,18.5625 0,18.875 0,19.25 C0,19.6875 0.3125,20 0.6875,20 L19.3125,20 C19.6875,20 20,19.6875 20,19.3125 C20,18.875 19.6875,18.5625 19.3125,18.5625 Z" id="Shape" fill="#1492FF" fill-rule="nonzero"></path>
    </g>
</svg>