<?xml version="1.0" standalone="no"?><!DOCTYPE svg PUBLIC "-//W3C//DTD SVG 1.1//EN" "http://www.w3.org/Graphics/SVG/1.1/DTD/svg11.dtd"><svg t="1562658386005" class="icon" viewBox="0 0 1024 1024" version="1.1" xmlns="http://www.w3.org/2000/svg" p-id="3825" xmlns:xlink="http://www.w3.org/1999/xlink" width="200" height="200"><defs><style type="text/css"></style></defs><path d="M1014.6 57.2L57.2 1014.6c-12.4 12.4-32.8 12.4-45.3 0l-2.6-2.6c-12.4-12.4-12.4-32.8 0-45.3L966.8 9.4c12.4-12.4 32.8-12.4 45.3 0l2.6 2.6c12.4 12.4 12.4 32.8-0.1 45.2z" fill="#666666" p-id="3826"></path><path d="M57.2 9.4l957.4 957.4c12.4 12.4 12.4 32.8 0 45.3l-2.6 2.6c-12.4 12.4-32.8 12.4-45.3 0L9.4 57.2C-3.1 44.8-3.1 24.4 9.4 12L12 9.4c12.4-12.5 32.8-12.5 45.2 0z" fill="#666666" p-id="3827"></path></svg>