<?xml version="1.0" encoding="UTF-8"?>
<svg width="20px" height="20px" viewBox="0 0 20 20" version="1.1" xmlns="http://www.w3.org/2000/svg" xmlns:xlink="http://www.w3.org/1999/xlink">
    <!-- Generator: Sketch 51.3 (57544) - http://www.bohemiancoding.com/sketch -->
    <title>形状 copy 2</title>
    <desc>Created with Sketch.</desc>
    <defs></defs>
    <g id="形状-copy-2" stroke="none" stroke-width="1" fill="none" fill-rule="evenodd">
        <g id="shengri" transform="translate(2.000000, 0.000000)" fill="#1492FF" fill-rule="nonzero">
            <path d="M8.18181818,5.45454545 C9.18597227,5.45454545 9.99999999,4.64051773 9.99999999,3.63636364 C9.99999999,3.2909091 9.90909089,2.97272727 9.73636363,2.7 L8.18181818,0 L6.62727272,2.7 C6.45454545,2.97272727 6.36363637,3.29090908 6.36363637,3.63636364 C6.36363637,4.63636363 7.18181819,5.45454545 8.18181818,5.45454545 Z M12.3636364,14.5363636 L11.3909091,13.5636364 L10.4090909,14.5363636 C9.22727271,15.7181818 7.15454544,15.7272727 5.96363635,14.5363636 L4.99090909,13.5636364 L3.99999999,14.5363636 C3.40909091,15.1272727 2.61818182,15.4545454 1.78181819,15.4545454 C1.11818182,15.4545454 0.509090923,15.2454545 0,14.9 L0,19.0909091 C0,19.5909091 0.409090909,20 0.909090916,20 L15.4545454,20 C15.9545454,20 16.3636364,19.5909091 16.3636364,19.0909091 L16.3636364,14.9 C15.8545455,15.2454545 15.2454545,15.4545455 14.5818182,15.4545454 C13.7454545,15.4545454 12.9545454,15.1272727 12.3636364,14.5363636 Z M13.6363636,8.18181818 L9.09090909,8.18181818 L9.09090909,6.36363637 L7.27272726,6.36363637 L7.27272726,8.18181818 L2.72727273,8.18181818 C1.21818181,8.18181818 0,9.39999999 0,10.9090909 L0,12.3090909 C0,13.2909091 0.800000007,14.0909091 1.78181819,14.0909091 C2.25454547,14.0909091 2.70909092,13.9090909 3.03636364,13.5727273 L4.98181817,11.6363636 L6.91818181,13.5727273 C7.59090907,14.2454545 8.76363635,14.2454545 9.43636363,13.5727273 L11.3818182,11.6363636 L13.3181818,13.5727273 C13.6545455,13.9090909 14.1,14.0909091 14.5727273,14.0909091 C15.5545455,14.0909091 16.3545455,13.2909091 16.3545454,12.3090909 L16.3545454,10.9090909 C16.3636364,9.39999999 15.1454545,8.18181818 13.6363636,8.18181818 Z" id="Shape"></path>
        </g>
    </g>
</svg>