<?xml version="1.0" encoding="UTF-8"?>
<svg width="14px" height="15px" viewBox="0 0 14 15" version="1.1" xmlns="http://www.w3.org/2000/svg" xmlns:xlink="http://www.w3.org/1999/xlink">
    <!-- Generator: Sketch 51.3 (57544) - http://www.bohemiancoding.com/sketch -->
    <title>下</title>
    <desc>Created with Sketch.</desc>
    <defs></defs>
    <g id="Symbols" stroke="none" stroke-width="1" fill="none" fill-rule="evenodd">
        <g id="Group-11" transform="translate(-288.000000, -10.000000)" fill="#666666">
            <g id="日期">
                <g transform="translate(287.000000, 10.000000)">
                    <g id="riqi-5" transform="translate(1.000000, 0.000000)">
                        <path d="M12.0050966,1.4979236 C12.2047191,1.4979236 12.3945618,1.53876854 12.5763506,1.62045843 C12.7569888,1.7027236 12.919218,1.80800001 13.0590112,1.93686292 C13.3441643,2.21986765 13.5025189,2.60631081 13.4979506,3.00803596 L13.4979506,13.4948315 C13.4979506,13.7059595 13.459982,13.9027056 13.3840449,14.0839191 C13.3109394,14.2609017 13.2000015,14.419749 13.0590112,14.5493213 C12.7799183,14.8297599 12.4007458,14.9876794 12.0050966,14.9882607 L1.5010427,14.9882607 C1.10529548,14.9873266 0.726073717,14.8294727 0.446552815,14.5493213 C0.305558246,14.4198763 0.194784664,14.260983 0.122094388,14.0839191 C0.0446974581,13.8972562 0.00576018251,13.6968955 0.00761347753,13.4948315 L0.00761347753,3.00861123 C0.00761347753,2.79748315 0.048458427,2.60131235 0.130723601,2.42009887 C0.212413483,2.23888539 0.317689888,2.07723145 0.446552815,1.93743821 C0.588071916,1.80857528 0.748575287,1.70329888 0.930364045,1.6210337 C1.11157753,1.53876853 1.3019955,1.49849887 1.5010427,1.49849887 L2.25638651,1.49849887 L2.25638651,0.00449438764 L3.74981574,0.00449438764 L3.74981574,1.4979236 L9.75689887,1.4979236 L9.75689887,0.00449438764 L11.2503281,0.00449438764 L11.2503281,1.4979236 L12.0050966,1.4979236 Z M12.0050966,13.4948315 L12.0050966,5.25680899 L1.5010427,5.25680899 L1.5010427,13.4948315 L12.0050966,13.4948315 Z M10.4949843,6.7502382 L10.4949843,8.24309213 L3.01173034,8.24309213 L3.01173034,6.7502382 L10.4949843,6.7502382 Z M8.24678651,9.75377978 L8.24678651,11.2466337 L3.01173034,11.2466337 L3.01173034,9.75377978 L8.24678651,9.75377978 Z" id="Shape" fill-rule="nonzero"></path>
                    </g>
                </g>
            </g>
        </g>
    </g>
</svg>