<?xml version="1.0" encoding="UTF-8"?>
<svg width="11px" height="6px" viewBox="0 0 11 6" version="1.1" xmlns="http://www.w3.org/2000/svg" xmlns:xlink="http://www.w3.org/1999/xlink">
    <!-- Generator: Sketch 51.3 (57544) - http://www.bohemiancoding.com/sketch -->
    <title>下</title>
    <desc>Created with Sketch.</desc>
    <defs></defs>
    <g id="Symbols" stroke="none" stroke-width="1" fill="none" fill-rule="evenodd">
        <g id="Group-11-Copy-4" transform="translate(-340.000000, -15.000000)">
            <g id="Group-11">
                <g id="下" transform="translate(339.000000, 10.000000)">
                    <g id="jiantou-copy1" stroke-width="1" transform="translate(3.000000, 4.000000)">
                        <path d="M0.0088028169,0.848531187 C0.0088028169,0.621740443 0.09861167,0.41056338 0.261619718,0.253843058 C0.58917505,-0.0615392354 1.11269618,-0.051861167 1.42856137,0.27555332 L5.02400402,4.00581489 L8.56594567,0.261770624 C8.87889336,-0.0687022133 9.40240443,-0.0833299799 9.73312877,0.229205231 C9.89720322,0.384808853 9.99119718,0.60360161 9.99120724,0.829386318 C9.99120724,1.041167 9.91114688,1.24249497 9.76565392,1.39640845 L5.63291751,5.76584507 C5.38969819,6.0234507 5.00684105,6.0918008 4.68049296,5.93587525 C4.6560161,5.92465795 4.63720322,5.91157948 4.62648893,5.903833 C4.62002012,5.90028169 4.61325956,5.89663984 4.60640845,5.89308853 C4.56703219,5.87226358 4.51472837,5.84465795 4.46490946,5.79706237 L4.46168008,5.79391348 C4.45869215,5.7910161 4.45597586,5.78809859 4.45346076,5.78544266 C4.43990946,5.77591549 4.42731388,5.76550302 4.41600604,5.75420523 L0.239939638,1.42141851 C0.0908752515,1.26640845 0.00882293763,1.06300805 0.00882293763,0.848501006 L0.0088028169,0.848531187 Z" id="Shape" fill-rule="nonzero"></path>
                    </g>
                    <polygon id="Rectangle" fill="#666666" transform="translate(6.500000, 5.500000) rotate(-135.000000) translate(-6.500000, -5.500000) " points="3 2 10 2 3 9"></polygon>
                </g>
            </g>
        </g>
    </g>
</svg>