<?xml version="1.0" encoding="UTF-8"?>
<svg width="120px" height="120px" viewBox="0 0 120 120" version="1.1" xmlns="http://www.w3.org/2000/svg" xmlns:xlink="http://www.w3.org/1999/xlink">
    <!-- Generator: Sketch 51.3 (57544) - http://www.bohemiancoding.com/sketch -->
    <title>icon/面性/参保登记</title>
    <desc>Created with Sketch.</desc>
    <defs></defs>
    <g id="icon/面性/参保登记" stroke="none" stroke-width="1" fill="none" fill-rule="evenodd">
        <g id="tubiaokuwenjian-gengxin-" transform="translate(2.000000, 10.000000)" fill="#0284FD" fill-rule="nonzero">
            <path d="M113.352787,18.3308642 L107.79798,14.9979798 C105.576057,13.3315376 102.243172,14.442499 100.57673,16.664422 L97.2438458,21.6637486 L111.686345,30.5514404 L115.019229,25.5521138 C116.685672,23.3301908 116.130191,19.9973064 113.352787,18.3308642 Z" id="Shape"></path>
            <polygon id="Shape" points="85.6859754 72.909561 71.080122 63.7884812 95.2068492 25.1536432 109.812703 34.274723"></polygon>
            <polygon id="Shape" points="68.9143284 83.8775908 83.9123082 76.1008604 69.4698092 67.2131688"></polygon>
            <path d="M14.4772166,26.6630752 L4.47856341,26.6630752 C1.70115979,26.6630752 0.0347175892,24.4411522 0.0347175892,22.2192294 C0.0347175892,19.4418258 2.25664057,17.7753836 4.47856341,17.7753834 L14.4772166,17.7753834 C16.6991396,17.2199026 18.9210624,19.4418256 18.9210624,21.6637486 C18.9210624,24.4411522 16.6991395,26.6630752 14.4772166,26.6630752 Z" id="Shape"></path>
            <path d="M14.4772166,54.4371118 L4.47856341,54.4371118 C1.70115979,54.4371118 0.0347175892,52.2151888 0.0347175892,49.993266 C0.0347175892,47.2158624 2.25664057,45.5494202 4.47856341,45.5494202 L14.4772166,45.5494202 C16.6991396,45.5494202 18.9210624,47.2158624 18.9210624,49.993266 C18.9210624,52.7706696 16.6991395,54.4371118 14.4772166,54.4371118 Z" id="Shape"></path>
            <path d="M14.4772166,82.7666292 L4.47856341,82.7666292 C1.70115979,82.7666292 0.0347175892,80.5447062 0.0347175892,78.3227834 C0.0347175892,75.5453798 2.25664057,73.8789376 4.47856341,73.8789376 L14.4772166,73.8789376 C17.2546202,73.8789376 18.9210624,76.1008605 18.9210624,78.3227834 C18.9210624,80.5447062 16.6991395,82.7666292 14.4772166,82.7666292 Z" id="Shape"></path>
            <path d="M94.8114478,68.0305852 L94.8114478,97.5666667 C94.8114478,98.6712362 93.9160173,99.5666667 92.8114478,99.5666667 L9.81144781,99.5666667 C8.70687831,99.5666667 7.81144781,98.6712362 7.81144781,97.5666667 L7.81144781,87 L14.9833333,87 C20.0551483,87 24.1666667,82.8884816 24.1666667,77.8166667 C24.1666667,72.7448517 20.0551483,68.6333333 14.9833333,68.6333333 L7.81144781,68.6333333 L7.81144781,58.9666667 L14.9833333,58.9666667 C20.0551483,58.9666667 24.1666667,54.8551483 24.1666667,49.7833333 C24.1666667,44.7115184 20.0551483,40.6 14.9833333,40.6 L7.81144781,40.6 L7.81144781,30.9333333 L14.9833333,30.9333333 C20.0551483,30.9333333 24.1666667,26.821815 24.1666667,21.75 C24.1666667,16.678185 20.0551483,12.5666667 14.9833333,12.5666667 L7.81144781,12.5666667 L7.81144781,2 C7.81144781,0.8954305 8.70687831,2.02906125e-16 9.81144781,0 L92.8114478,0 C93.9160173,-2.02906125e-16 94.8114478,0.8954305 94.8114478,2 L94.8114478,16.8062813 L64.5693685,65.0102214 L63.9000651,92.6532064 L88.0690918,79.3204753 L94.8114478,68.0305852 Z M38.1833333,17.4 C35.7808947,17.4 33.8333333,19.3475613 33.8333333,21.75 C33.8333333,24.1524387 35.7808947,26.1 38.1833333,26.1 L69.1166667,26.1 C71.5191053,26.1 73.4666667,24.1524387 73.4666667,21.75 C73.4666667,19.3475613 71.5191053,17.4 69.1166667,17.4 L38.1833333,17.4 Z M38.1833333,36.7333333 C35.7808947,36.7333333 33.8333333,38.6808947 33.8333333,41.0833333 C33.8333333,43.485772 35.7808947,45.4333333 38.1833333,45.4333333 L61.3833333,45.4333333 C63.785772,45.4333333 65.7333333,43.485772 65.7333333,41.0833333 C65.7333333,38.6808947 63.785772,36.7333333 61.3833333,36.7333333 L38.1833333,36.7333333 Z" id="Combined-Shape"></path>
        </g>
    </g>
</svg>