<?xml version="1.0" encoding="UTF-8"?>
<svg width="120px" height="120px" viewBox="0 0 120 120" version="1.1" xmlns="http://www.w3.org/2000/svg" xmlns:xlink="http://www.w3.org/1999/xlink">
    <!-- Generator: Sketch 51.3 (57544) - http://www.bohemiancoding.com/sketch -->
    <title>icon/面性/转移接续</title>
    <desc>Created with Sketch.</desc>
    <defs></defs>
    <g id="icon/面性/转移接续" stroke="none" stroke-width="1" fill="none" fill-rule="evenodd">
        <g id="Group-3" transform="translate(6.000000, 11.000000)">
            <g id="Group-2" fill="#1492FF">
                <path d="M22,64.805519 L15.2370299,64.805519 L15.2371525,64.805519 C12.9507457,64.805519 11.097545,67.0439294 11.097545,69.805445 C11.097545,72.5669605 12.9507457,74.805519 15.2371525,74.805519 L22,74.805519 L22,81.2307692 C22,83.6948089 23.9974988,85.6923077 26.4615385,85.6923077 L27.5384615,85.6923077 C30.0025012,85.6923077 32,83.6948089 32,81.2307692 L32,74.805519 L38.0668979,74.805519 C40.3533048,74.805519 42.2065054,72.5671086 42.2065054,69.805593 C42.2065054,67.0440775 40.3531822,64.805519 38.0670205,64.805519 L32,64.805519 L32,59.6923077 C32,57.228268 30.0025012,55.2307692 27.5384615,55.2307692 L26.4615385,55.2307692 C23.9974988,55.2307692 22,57.228268 22,59.6923077 L22,64.805519 Z M109,57.6672614 C104.270273,51.2003661 96.6256604,47 88,47 C73.6405965,47 62,58.6405965 62,73 C62,87.1725105 73.3395549,98.6965259 87.4407222,98.9941039 L87.4287109,99 L2,99 C0.8954305,99 1.3527075e-16,98.1045695 0,97 L0,22 C-1.3527075e-16,20.8954305 0.8954305,20 2,20 L107,20 C108.104569,20 109,20.8954305 109,22 L109,57.6672614 Z M109,88.3327386 L109,88.4111328 L108.909691,88.4554637 C108.939911,88.4146467 108.970014,88.3737382 109,88.3327386 Z" id="Combined-Shape"></path>
                <path d="M89.5805264,76 L89.5834939,84.7630673 L99.1029243,75.250082 C99.9814132,74.4662525 100.420658,73.6767363 100.420658,72.8815336 C100.420658,72.0863309 99.8975072,71.2150572 98.8512064,70.2677125 L89.5754468,61 L89.5781559,69 L78,69 L78,69.0354444 C77.8366985,69.012086 77.6697607,69 77.5,69 C75.5670034,69 74,70.5670034 74,72.5 C74,74.4329966 75.5670034,76 77.5,76 C77.6697607,76 77.8366985,75.987914 78,75.9645556 L78,76 L89.5805264,76 Z M106.395722,64.7170984 C107.465241,67.1958549 108,69.8901554 108,72.746114 C108,75.6559585 107.465241,78.3502591 106.395722,80.8829016 C105.379679,83.361658 103.935829,85.5709845 102.117647,87.4569948 C100.299465,89.3430052 98.1604278,90.8518135 95.7540107,91.9295337 C93.3475936,93.0611399 90.7272727,93.6 87.9465241,93.6 C85.2192513,93.6 82.6524064,93.0072539 80.2459893,91.9295337 C77.7860963,90.8518135 75.7005348,89.3430052 73.8823529,87.4569948 C72.1176471,85.5709845 70.6737968,83.415544 69.6042781,80.8829016 C68.5347594,78.3502591 68,75.6559585 68,72.746114 C68,69.8901554 68.5347594,67.2497409 69.6042781,64.7170984 C70.6203209,62.238342 72.0641711,60.0290155 73.8823529,58.1430052 C75.7005348,56.2569948 77.8395722,54.7481865 80.2459893,53.6704663 C82.6524064,52.5388601 85.2192513,52 87.9465241,52 C90.7272727,52 93.3475936,52.5927461 95.7540107,53.6704663 C98.2139037,54.7481865 100.299465,56.2569948 102.117647,58.1430052 C103.882353,60.0290155 105.326203,62.184456 106.395722,64.7170984 Z" id="Combined-Shape" fill-rule="nonzero"></path>
                <path d="M36,0 L73,0 C74.1045695,-2.02906125e-16 75,0.8954305 75,2 L75,21 C75,22.1045695 74.1045695,23 73,23 L36,23 C34.8954305,23 34,22.1045695 34,21 L34,2 C34,0.8954305 34.8954305,2.02906125e-16 36,0 Z M42,7 L42,20 L66,20 L66,7 L42,7 Z" id="Combined-Shape"></path>
            </g>
            <g id="Group" transform="translate(11.000000, 55.000000)"></g>
        </g>
    </g>
</svg>