<?xml version="1.0" encoding="UTF-8"?>
<svg width="120px" height="120px" viewBox="0 0 120 120" version="1.1" xmlns="http://www.w3.org/2000/svg" xmlns:xlink="http://www.w3.org/1999/xlink">
    <!-- Generator: Sketch 51.3 (57544) - http://www.bohemiancoding.com/sketch -->
    <title>icon/面性/单位变更</title>
    <desc>Created with Sketch.</desc>
    <defs></defs>
    <g id="icon/面性/单位变更" stroke="none" stroke-width="1" fill="none" fill-rule="evenodd">
        <g id="danwei" transform="translate(5.000000, 10.000000)" fill="#0284FD">
            <path d="M2,0 L56.7378641,0 C57.8424336,-2.02906125e-16 58.7378641,0.8954305 58.7378641,2 L58.7378641,98 C58.7378641,99.1045695 57.8424336,100 56.7378641,100 L2,100 C0.8954305,100 7.98370909e-15,99.1045695 0,98 L0,2 C-1.3527075e-16,0.8954305 0.8954305,2.02906125e-16 2,0 Z M12.815534,13.4615385 L12.815534,29.8076923 L25.631068,29.8076923 L25.631068,13.4615385 L12.815534,13.4615385 Z M34.1747573,13.4615385 L34.1747573,29.8076923 L46.9902913,29.8076923 L46.9902913,13.4615385 L34.1747573,13.4615385 Z M12.3378717,39.9038462 L12.3378717,56.25 L24.9578561,56.25 L24.9578561,39.9038462 L12.3378717,39.9038462 Z M33.3711791,39.9038462 L33.3711791,56.25 L45.9911635,56.25 L45.9911635,39.9038462 L33.3711791,39.9038462 Z M12.815534,66.3461538 L12.815534,82.6923077 L25.631068,82.6923077 L25.631068,66.3461538 L12.815534,66.3461538 Z M34.1747573,66.3461538 L34.1747573,82.6923077 L46.9902913,82.6923077 L46.9902913,66.3461538 L34.1747573,66.3461538 Z" id="Combined-Shape"></path>
            <path d="M61.5077761,46.1946262 L61.5077761,98.9477804 C61.5077761,99.536215 61.9433545,99.9283879 62.596787,99.9283879 L73.2696915,99.9283879 C73.923124,99.9283879 74.3587025,99.536215 74.3587025,98.9477804 L74.3587025,75.6109813 C74.3587025,75.0225467 74.7942809,74.6303738 75.4477135,74.6303738 L94.8333545,74.6303738 C95.486787,74.6303738 95.9223655,75.0225467 95.9223655,75.6109813 L95.9223655,98.9477804 C95.9223655,99.536215 96.3580737,99.9283879 97.0115062,99.9283879 L107.684281,99.9283879 C108.337713,99.9283879 108.773422,99.536215 108.773422,98.9477804 L108.773422,46.1946262 C108.773422,45.6063084 108.337713,45.2141355 107.684281,45.2141355 L62.8146411,45.2141355 C62.1612086,45.2141355 61.5077761,45.6063084 61.5077761,46.1946262 Z M108.337584,40.7036215 L62.596787,40.7036215 C62.1610788,40.7036215 61.7255004,40.3114486 61.7255004,39.9191589 L61.7255004,30.7021028 C61.7255004,30.3098131 62.1610788,29.9176402 62.596787,29.9176402 L108.337584,29.9176402 C108.773292,29.9176402 109.20887,30.3098131 109.20887,30.7021028 L109.20887,39.9191589 C109.20887,40.3114486 108.773292,40.7036215 108.337584,40.7036215 Z" id="Shape" fill-rule="nonzero"></path>
        </g>
    </g>
</svg>