<?xml version="1.0" encoding="UTF-8"?>
<svg width="120px" height="120px" viewBox="0 0 120 120" version="1.1" xmlns="http://www.w3.org/2000/svg" xmlns:xlink="http://www.w3.org/1999/xlink">
    <!-- Generator: Sketch 51.3 (57544) - http://www.bohemiancoding.com/sketch -->
    <title>icon/面性/职工变更</title>
    <desc>Created with Sketch.</desc>
    <defs></defs>
    <g id="icon/面性/职工变更" stroke="none" stroke-width="1" fill="none" fill-rule="evenodd">
        <circle id="Oval" fill="#0284FD" cx="60" cy="60" r="55"></circle>
        <g id="zhigongguanli" transform="translate(35.000000, 26.000000)" fill="#FFFFFF" fill-rule="nonzero">
            <polygon id="Shape" points="26.2902778 11.2125 14.2472222 11.2125 7.7625 1.725 32.775 1.725"></polygon>
            <path d="M25.7917241,13.7721774 L13.8832759,13.7721774 C13.1920862,13.7721774 12.5425345,13.4216129 12.1511379,12.8456855 L5.73889655,3.24689516 C5.31418966,2.60419355 5.27255172,1.78620968 5.63063793,1.10177419 C5.98872414,0.41733871 6.69656897,0 7.47103448,0 L32.2039655,0 C32.9701034,0 33.6779483,0.425685484 34.0443621,1.10177419 C34.4107759,1.7778629 34.3691379,2.60419355 33.9361034,3.24689516 L27.5238621,12.8456855 C27.1324655,13.4216129 26.4829138,13.7721774 25.7917241,13.7721774 Z M14.9908448,9.59879032 L24.6758276,9.59879032 L28.2983276,4.1733871 L11.3683448,4.1733871 L14.9908448,9.59879032 Z M37.95,58.9449194 L19.8375,67.275 L1.725,58.9449194 L14.2163793,16.8604839 L25.4586207,16.8604839 L37.95,58.9449194 Z" id="Shape"></path>
            <path d="M20.2603939,69 C19.9595754,69 19.667113,68.9335423 19.3913627,68.808934 L1.21691125,60.5183324 C0.27267538,60.0863572 -0.211976658,59.0313408 0.0888418486,58.0344749 L12.6229463,16.1494917 C12.8903405,15.2689268 13.7008793,14.6625 14.628403,14.6625 L25.909097,14.6625 C26.8366207,14.6625 27.6471595,15.2689268 27.9145537,16.1494917 L40.4486582,58.0344749 C40.7494767,59.0230336 40.2648246,60.0863572 39.3205888,60.5183324 L21.1461373,68.808934 C20.8536749,68.9335423 20.5528564,69 20.2603939,69 Z M4.60111945,57.502813 L20.2603939,64.6387116 L35.9113123,57.502813 L24.3381559,18.8244152 L16.1742759,18.8244152 L4.60111945,57.502813 Z" id="Shape"></path>
            <polygon id="Shape" points="31.05 16.3875 48.3 39.2369779 39.0642344 43.125"></polygon>
            <path d="M39.4876772,44.85 C39.1796737,44.85 38.8799946,44.7844398 38.5969644,44.6533194 C38.0642016,44.4074686 37.6646295,43.9485472 37.4981412,43.3994805 L29.4151307,17.30652 C29.1237761,16.3558971 29.5566458,15.3397139 30.455683,14.8889875 C31.3463958,14.4382611 32.4452191,14.6759169 33.0612261,15.4626393 L50.4592609,37.7613031 C50.8505086,38.2693947 50.9836993,38.9249967 50.8172109,39.5396236 C50.6507225,40.1542505 50.2012039,40.6623421 49.6018458,40.8999978 L40.278497,44.6942945 C40.0287644,44.8008298 39.7540586,44.85 39.4876772,44.85 Z M36.7406191,26.9110896 L40.8112598,40.0477152 L45.4979074,38.1382743 L36.7406191,26.9110896 Z" id="Shape"></path>
        </g>
    </g>
</svg>