<?xml version="1.0" encoding="UTF-8"?>
<svg width="80px" height="54px" viewBox="0 0 80 54" version="1.1" xmlns="http://www.w3.org/2000/svg" xmlns:xlink="http://www.w3.org/1999/xlink">
    <!-- Generator: Sketch 51.3 (57544) - http://www.bohemiancoding.com/sketch -->
    <title>无信息</title>
    <desc>Created with Sketch.</desc>
    <defs></defs>
    <g id="Page-1" stroke="none" stroke-width="1" fill="none" fill-rule="evenodd">
        <g id="001零星报销提交页" transform="translate(-910.000000, -606.000000)" fill="#CCCCCC">
            <g id="Group-14" transform="translate(450.000000, 530.000000)">
                <g id="Group-4">
                    <g id="Group-30">
                        <g id="Group-17" transform="translate(460.000000, 63.000000)">
                            <g id="无信息">
                                <g id="wuxinxi" transform="translate(0.000000, 13.714286)">
                                    <path d="M7.9998826,35.9249048 L9.07739745,35.9249048 C9.36787706,35.9309286 9.60026072,36.1691429 9.60026072,36.4615714 C9.60026072,36.7572857 9.37061741,36.9976905 9.07739745,36.9976905 L7.9998826,36.9976905 L7.9998826,38.0803333 C7.99510685,38.3714508 7.75800346,38.6051918 7.46660589,38.6060476 C7.32630809,38.6082158 7.19102547,38.5539504 7.09117475,38.4554524 C6.99060644,38.356443 6.93378201,38.2214001 6.93332924,38.0803333 L6.93332924,36.9976905 L5.85636243,36.9976905 C5.56479875,36.9911249 5.33222993,36.7524163 5.33349921,36.4610238 C5.33349921,36.1653095 5.56259442,35.9249048 5.85636243,35.9249048 L6.93332924,35.9249048 L6.93332924,34.8417143 C6.93810499,34.5505968 7.17520835,34.3168558 7.46660589,34.316 C7.76147009,34.316 7.99988255,34.5470952 7.9998826,34.8417143 L7.9998826,35.9249048 Z M78.4000772,31.6354048 L78.4000772,30.5522143 C78.3994786,30.4113376 78.3426654,30.2765186 78.2422317,30.1776428 C78.1422471,30.0790081 78.0067393,30.0247317 77.8662525,30.0270476 C77.5748549,30.0279034 77.3377515,30.2616445 77.3329758,30.5527619 L77.3329758,31.6354048 L76.256009,31.6354048 C76.1154789,31.6362038 75.9811736,31.6934334 75.8833182,31.7942143 C75.7849371,31.895185 75.7308917,32.0311715 75.7331457,32.1720714 C75.7331457,32.4590238 75.9677217,32.7076429 76.256009,32.7076429 L77.3329758,32.7076429 L77.3329758,33.7908333 C77.3329758,34.086 77.5719363,34.3165476 77.8662525,34.3165476 C78.1567321,34.3165476 78.3940484,34.0827143 78.4000772,33.7908333 L78.4000772,32.7076429 L79.477044,32.7076429 C79.6177932,32.7066432 79.7522865,32.6493964 79.8505183,32.5486741 C79.9487501,32.4479519 80.0025472,32.3121349 79.9999072,32.1715238 C80.000877,31.880344 79.7683937,31.6419666 79.477044,31.6354048 L78.4000772,31.6354048 Z M39.6501001,49.3300714 L12.7977285,49.3300714 C12.514922,49.3300714 12.243625,49.2172619 12.0441257,49.0157381 C11.8443965,48.8140882 11.7328407,48.5415356 11.7339155,48.2578333 C11.7339155,47.6658572 12.2173174,47.1850476 12.7971804,47.1850476 L17.6350357,47.1850476 C17.261381,46.5339076 17.0655714,45.7960774 17.0672304,45.0455 L17.0672304,13.9352619 C17.0674281,12.7990912 17.5176672,11.7091781 18.319581,10.9036429 C19.1186251,10.1010004 20.2053377,9.65035414 21.3383764,9.6517857 L24.5336519,9.6517857 L24.5336519,8.5735238 C24.5337048,7.43716338 24.9839549,6.34702682 25.7860026,5.54135713 C26.5850467,4.73871467 27.6717593,4.28806841 28.804798,4.28950001 L54.3960498,4.28950001 C55.5294497,4.28732685 56.6167122,4.73784038 57.4159414,5.54080954 C58.2179243,6.34665727 58.6678183,7.43708296 58.6671959,8.5735238 L58.6671959,39.6837619 C58.6686109,40.434379 58.4726167,41.1721928 58.0988424,41.8233095 L63.9994146,41.8233095 C64.589143,41.8233095 65.0670641,42.2997381 65.0670641,42.8955476 C65.0682291,43.1791401 64.9564449,43.451548 64.756364,43.6526953 C64.5562832,43.8538425 64.2843409,43.9672063 64.0005107,43.9677857 L51.2002262,43.9677857 L51.2002262,45.0455 C51.2014745,45.7961667 51.0052904,46.5339838 50.6313247,47.1850476 L51.2029666,47.1850476 C51.7894065,47.1850476 52.2662315,47.6614762 52.2662315,48.2578333 C52.2662564,48.8461859 51.7917838,49.3246627 51.2029666,49.3300714 L45.5912298,49.3300714 C46.0790162,50.1515 45.9732378,51.2281191 45.2640292,51.9411191 C44.8657591,52.3441652 44.3225924,52.5711511 43.7557276,52.5714286 C43.1889423,52.5712958 42.6457868,52.3445118 42.2474261,51.9416667 L39.6501001,49.3295238 L39.6501001,49.3300714 Z M43.5496515,47.1850476 L46.9422339,47.1850476 C48.1151138,47.1850476 49.0665715,46.2305476 49.0665715,45.0350952 L49.0665715,13.8854285 C49.0665715,12.7272143 48.1452579,11.7962619 47.0080029,11.7962619 L21.2589056,11.7962619 C20.1216506,11.7962619 19.2003371,12.7315952 19.2003371,13.8854285 L19.2003371,45.0350952 C19.2003371,46.2223333 20.1600158,47.1850476 21.3235784,47.1850476 L37.5158972,47.1850476 L36.9678226,46.6330476 C36.4259673,46.0903258 36.2144172,45.3003332 36.4126229,44.5597619 L35.4058097,43.5466667 C32.2686301,45.8943095 27.8610134,45.4113095 25.3004084,42.439381 C22.7398034,39.4669047 22.8943605,35.0120238 25.6533685,32.2251905 C28.4211458,29.4323334 32.8660315,29.2680476 35.8311156,31.8495238 C38.7951036,34.4304523 39.2680921,38.877119 36.9141112,42.0297619 L37.9225687,43.0434048 C38.6599124,42.8437777 39.4477041,43.0566248 39.9838776,43.6003333 L43.5496515,47.1850476 Z M51.2002262,41.8233095 L54.4097516,41.8233095 C55.5837276,41.8178333 56.5324449,40.8595 56.532993,39.6782857 L56.532993,8.57900001 C56.532993,7.3906667 55.5815353,6.4345238 54.4097516,6.4345238 L28.7894519,6.4345238 C27.6154759,6.44109523 26.6673067,7.39888094 26.6667586,8.57900001 L26.6667586,9.6517857 L46.9290801,9.6517857 C48.06248,9.64961254 49.1497426,10.1001261 49.9489717,10.9030952 C50.7509546,11.708943 51.2008487,12.7993687 51.2002262,13.9358095 L51.2002262,41.8233095 Z M13.6001098,2.41280954 L15.1895264,2.41280954 C15.6373035,2.41280954 16.0001289,2.76985714 16.0001289,3.2172619 C16.0001289,3.66083331 15.6373035,4.02171426 15.1889784,4.02171431 L13.6001098,4.02171431 L13.6001098,5.61911902 C13.6001098,6.0698095 13.2449574,6.4345238 12.7999208,6.4345238 C12.5860915,6.43295633 12.3817211,6.34623024 12.2321154,6.19357141 C12.081919,6.0402081 11.9985713,5.8336857 12.0002798,5.61911902 L12.0002798,4.02171431 L10.4108632,4.02171431 C10.1968316,4.02364713 9.99094658,3.93982316 9.83922127,3.78897621 C9.68693249,3.63754611 9.60099215,3.43193343 9.60026072,3.2172619 C9.60026072,2.77369049 9.96253806,2.41280954 10.4108632,2.41280954 L12.0002798,2.41280954 L12.0002798,0.814857141 C12.0002798,0.364714297 12.3554322,0 12.8004689,0 C13.241669,0 13.6001098,0.364714297 13.6001098,0.814857141 L13.6001098,2.41280954 Z M1.06673771,48.2578333 C1.06673771,47.6658572 1.55013959,47.1850476 2.13000258,47.1850476 L8.5369958,47.1850476 C9.12343574,47.1850476 9.60026072,47.6614762 9.60026072,48.2578333 C9.6002856,48.8461859 9.12581302,49.3246627 8.5369958,49.3300714 L2.12945454,49.3300714 C1.84719605,49.3300714 1.57589909,49.2172619 1.37639988,49.0157381 C1.1766706,48.8140882 1.06511487,48.5415356 1.06618962,48.2578333 L1.06673771,48.2578333 Z M34.7048221,41.3255238 C36.0536787,39.9667511 36.5794723,37.994788 36.0859703,36.1455952 C35.5967791,34.2992559 34.1589853,32.85389 32.3141203,32.3538809 C30.4718533,31.858239 28.5050644,32.3879379 27.1616701,33.7415476 C25.0789862,35.8361904 25.0789862,39.2314286 27.1616701,41.3260714 C28.1589373,42.3311855 29.516744,42.8965877 30.9332461,42.8965877 C32.3497482,42.8965877 33.7075549,42.3311855 34.7048221,41.3260714 L34.7048221,41.3255238 Z M23.4665505,16.0857619 C23.4665505,15.4943334 23.9433755,15.0140714 24.5325558,15.0135238 L36.266835,15.0135238 C36.8560153,15.0135238 37.3333884,15.4937857 37.3333884,16.0857619 C37.3342618,16.3692661 37.2223836,16.6415053 37.0223657,16.8425892 C36.8223479,17.0436732 36.5505751,17.1571299 36.266835,17.158 L24.5336519,17.158 C24.2501845,17.1588666 23.9781802,17.0462502 23.778405,16.8453095 C23.5777722,16.6434567 23.4655969,16.3702444 23.4665505,16.0857619 Z M23.4665505,21.4480476 C23.4665505,20.8560714 23.9411832,20.3752619 24.5259789,20.3752619 L41.6072748,20.3752619 C42.1920706,20.3752619 42.6667032,20.8516905 42.6667032,21.4480476 C42.6667032,22.0394762 42.1920706,22.5202857 41.6072748,22.5202857 L24.526527,22.5202857 C24.244201,22.5197082 23.9738341,22.4063274 23.7756646,22.2054048 C23.5764677,22.0037567 23.4654915,21.7313722 23.4670986,21.4480476 L23.4665505,21.4480476 Z M23.4665505,26.8097857 C23.4653854,26.5264772 23.5769442,26.2543178 23.7766696,26.0532179 C23.9763949,25.852118 24.2479148,25.7385622 24.5314596,25.7375476 L32.0017177,25.7375476 C32.5898019,25.7375476 33.0666269,26.2139762 33.0666269,26.8097857 C33.0677921,27.0929998 32.9563085,27.3650764 32.7567015,27.5661605 C32.5570946,27.7672447 32.2857155,27.8808643 32.0022658,27.8820238 L24.5314596,27.8820238 C24.2482684,27.882575 23.9766566,27.7697604 23.7773088,27.5687857 C23.5771099,27.3669562 23.4653307,27.0939453 23.4665505,26.8097857 Z M3.20094058,20.3752619 C2.05516931,20.3743339 0.997538435,19.760716 0.428778723,18.7669047 C-0.142926241,17.7705511 -0.142926241,16.5459965 0.428778723,15.5496428 C0.997441078,14.5560013 2.05481721,13.9424099 3.20039248,13.9412857 C4.96738532,13.9412857 6.40005258,15.3815238 6.40005253,17.158 C6.40005253,18.9350239 4.96738527,20.3752619 3.20039248,20.3752619 L3.20094058,20.3752619 Z M3.20094058,18.7669047 C3.77258249,18.7669047 4.30092647,18.4602381 4.58647336,17.9624524 C4.87222111,17.4643454 4.87222111,16.8522022 4.58647336,16.3540952 C4.30226095,15.8572539 3.77368701,15.5503593 3.20094058,15.5496428 C2.77523531,15.550803 2.36743539,15.7209242 2.06729017,16.0225659 C1.76714494,16.3242075 1.59925234,16.7326491 1.60056246,17.158 C1.59910665,17.5834456 1.76693486,17.992028 2.06709585,18.2937882 C2.36725684,18.5955484 2.77514005,18.7657448 3.20094058,18.7669047 Z M69.3338256,13.9412857 C67.5662847,13.9412857 66.1336175,12.5010476 66.1336175,10.7240238 C66.1336175,8.94700002 67.5662847,7.50676191 69.3338256,7.50676191 C71.1008184,7.50676191 72.5334857,8.94700002 72.5334857,10.7240238 C72.5334857,12.5005 71.1008184,13.9412857 69.3338256,13.9412857 Z M69.3338256,12.3323809 C69.9054675,12.3323809 70.4338115,12.0257143 70.7193584,11.5284762 C71.0053156,11.0302295 71.0053156,10.4178181 70.7193584,9.91957145 C70.435146,9.42273007 69.906572,9.11583543 69.3338256,9.11511904 C68.9081202,9.11642399 68.5003777,9.28668435 68.2003352,9.58842881 C67.9002927,9.89017327 67.7325396,10.2986728 67.7339956,10.7240238 C67.7326853,11.1492801 67.9005028,11.5576389 68.2005295,11.8592648 C68.5005563,12.1608907 68.9082154,12.3310758 69.3338256,12.3323809 Z" id="Shape" fill-rule="nonzero"></path>
                                </g>
                            </g>
                        </g>
                    </g>
                </g>
            </g>
        </g>
    </g>
</svg>