<?xml version="1.0" encoding="UTF-8"?>
<svg width="20px" height="20px" viewBox="0 0 20 20" version="1.1" xmlns="http://www.w3.org/2000/svg" xmlns:xlink="http://www.w3.org/1999/xlink">
    <!-- Generator: Sketch 51.3 (57544) - http://www.bohemiancoding.com/sketch -->
    <title>科室</title>
    <desc>Created with Sketch.</desc>
    <defs></defs>
    <g id="科室" stroke="none" stroke-width="1" fill="none" fill-rule="evenodd" fill-opacity="0.2">
        <g id="fangjian" transform="translate(3.000000, 1.000000)" fill="#000000" fill-rule="nonzero">
            <path d="M0.758809756,1.76460827 L7.70190569,0.0193558232 C7.88701625,-0.0285345794 8.0838716,0.0135864649 8.23317742,0.133031779 C8.38248325,0.252477093 8.46678812,0.435285465 8.46069878,0.626393632 L8.46069878,16.4475404 C8.46394616,16.6303503 8.38462444,16.8048867 8.24477017,16.9226611 C8.10491591,17.0404355 7.91942758,17.0889016 7.73983618,17.0545948 L0.796740248,15.7646083 C0.341002799,15.6753933 0.0092062929,15.2803925 0,14.8160961 L0,2.71312046 C0.00519836528,2.26024321 0.3181194,1.86909192 0.758809756,1.76460827 Z M10.0921431,15.5749058 L12.8997325,15.5749058 C13.507387,15.5749058 13.9999908,15.0823095 14,14.474655 L14,2.5613485 C14.0000044,2.26953653 13.8840857,1.98967491 13.677745,1.78333113 C13.4714044,1.57698735 13.1915445,1.46106436 12.8997325,1.46106436 L10.0921431,1.46106436 L10.0921431,15.5749058 Z M5.95663659,7.22803184 C5.53930122,7.22803184 5.15989635,7.79713916 5.15989635,8.51800176 C5.15989635,9.23886436 5.50137073,9.80797167 5.95663659,9.80797167 C6.41190246,9.80797167 6.75339351,9.23886436 6.75339349,8.51800176 C6.75339347,7.79713916 6.37398861,7.22803184 5.95663659,7.22803184 Z" id="Shape"></path>
        </g>
    </g>
</svg>