<?xml version="1.0" encoding="UTF-8"?>
<svg width="20px" height="20px" viewBox="0 0 20 20" version="1.1" xmlns="http://www.w3.org/2000/svg" xmlns:xlink="http://www.w3.org/1999/xlink">
    <!-- Generator: Sketch 51.3 (57544) - http://www.bohemiancoding.com/sketch -->
    <title>dianhua</title>
    <desc>Created with Sketch.</desc>
    <defs></defs>
    <g id="dianhua" stroke="none" stroke-width="1" fill="none" fill-rule="evenodd" fill-opacity="0.2">
        <g id="dianhua-4" transform="translate(1.000000, 2.000000)" fill="#000000" fill-rule="nonzero">
            <path d="M14.9940402,5.26098214 C13.121096,4.64458259 13.8722545,3.47038393 12.7474554,3.01433705 C10.8377679,2.23995536 9.00297321,2.26538839 9.00297321,2.26538839 C9.00297321,2.26538839 7.17422545,2.24594196 5.25859152,3.01433705 C4.13150223,3.46660714 4.88483036,4.64458259 3.01188616,5.26096205 C1.03188616,5.91251786 -0.00158705357,4.95767411 0.0193861607,3.7781317 C0.0342723214,2.98735714 0.521075893,2.09545313 1.51414955,1.51652009 C4.05658929,0.0337700893 9.00295312,0.0187633929 9.00295312,0.0187633929 C9.00295312,0.0187633929 13.9494174,0.0337901786 16.4918371,1.51652009 C17.4773371,2.09167634 17.9648839,2.97460045 17.9857969,3.76093527 C18.0172969,4.94867411 16.9838638,5.91547098 14.9940402,5.26096205 L14.9940402,5.26098214 Z M6.44695313,4.72909821 L7.72151786,4.72909821 L7.72151786,6.01394866 L10.2912188,6.01394866 L10.2912188,4.72909821 L11.5760491,4.72909821 L11.5760491,6.01394866 L16.7222813,10.5031808 L16.7222813,13.4986942 C16.7222813,14.3254487 15.8208348,14.996471 14.9940402,14.996471 L3.01186607,14.996471 C2.1851317,14.996471 1.30417634,14.3254286 1.30417634,13.4986741 L1.30417634,10.5031808 L6.44697321,6.01394866 L6.44697321,4.72909821 L6.44695313,4.72909821 Z M9.01804018,13.0953616 C10.4367857,13.0953616 11.5870179,11.9451295 11.5870179,10.5265045 C11.5870179,9.10771875 10.4367857,7.9575067 9.01804018,7.9575067 C7.59941518,7.9575067 6.44916295,9.10771875 6.44916295,10.5265045 C6.44916295,11.9451295 7.59941518,13.0953616 9.01804018,13.0953616 Z" id="Shape"></path>
        </g>
    </g>
</svg>