<?xml version="1.0" encoding="UTF-8"?>
<svg width="120px" height="120px" viewBox="0 0 120 120" version="1.1" xmlns="http://www.w3.org/2000/svg" xmlns:xlink="http://www.w3.org/1999/xlink">
    <!-- Generator: Sketch 51.3 (57544) - http://www.bohemiancoding.com/sketch -->
    <title>icon/面性/转移接续 copy 2</title>
    <desc>Created with Sketch.</desc>
    <defs></defs>
    <g id="icon/面性/转移接续-copy-2" stroke="none" stroke-width="1" fill="none" fill-rule="evenodd">
        <path d="M85.0576923,33.4982357 C85.0576923,48.6871218 72.5090715,61 57.0285145,61 C41.5483997,61 29,48.6872321 29,33.4982357 C29,18.3086878 41.5527113,6 57.0285145,6 C72.5090715,6 85.0576923,18.3122166 85.0576923,33.4982357 Z M85.0576923,33.4982357 C85.0576923,48.6871218 72.5090715,61 57.0285145,61 C41.5483997,61 29,48.6872321 29,33.4982357 C29,18.3086878 41.5527113,6 57.0285145,6 C72.5090715,6 85.0576923,18.3122166 85.0576923,33.4982357 Z" id="Shape" fill="#1492FF" fill-rule="nonzero"></path>
        <path d="M0.00495627667,110 C0.00165541222,109.833586 0,109.666917 0,109.5 C0,93.3656385 15.4671089,79.5493214 37.4060634,73.8230096 C39.2236125,73.348609 49.1967773,98.0571289 52.8574219,95.2666016 C56.5180664,92.4760742 52.2039854,90.4440117 52.8574219,86.3554688 C54.0131563,79.1240546 59.1694336,77.8330078 60,77.8330078 C60.8305664,77.8330078 66.6865757,79.8358152 67.0126953,86.3554688 C67.2557018,91.2135584 63.0537492,92.8845079 65.5,95.2666016 C70.6943359,100.324707 79.7390296,73.0732673 82.7098641,73.853359 C104.587358,79.5980251 120,93.3940718 120,109.5 C120,109.666917 119.998345,109.833586 119.995044,110 L0.00495627667,110 Z" id="Combined-Shape" fill="#1492FF"></path>
    </g>
</svg>