<?xml version="1.0" encoding="UTF-8"?>
<svg width="20px" height="20px" viewBox="0 0 20 20" version="1.1" xmlns="http://www.w3.org/2000/svg" xmlns:xlink="http://www.w3.org/1999/xlink">
    <!-- Generator: Sketch 51.3 (57544) - http://www.bohemiancoding.com/sketch -->
    <title>注意</title>
    <desc>Created with Sketch.</desc>
    <defs></defs>
    <g id="注意" stroke="none" stroke-width="1" fill="none" fill-rule="evenodd">
        <g id="xCombinedShape" transform="translate(1.000000, 1.000000)" fill="#FE3116" fill-rule="nonzero">
            <path d="M9,18 C4.02937501,18 0,13.970625 0,9 C0,4.02937501 4.02937501,0 9,0 C13.970625,0 18,4.02937501 18,9 C18,13.970625 13.970625,18 9,18 Z M8.34899999,13.1143125 C8.34899999,13.4930625 8.65125,13.8 9.02399999,13.8 C9.39674999,13.8 9.69899999,13.492875 9.69899999,13.1143125 C9.69899999,12.7355625 9.39674999,12.428625 9.02399999,12.428625 C8.65125,12.428625 8.34899999,12.7355625 8.34899999,13.1143125 Z M9.88799999,5.0776875 C9.88799999,4.59300001 9.5011875,4.19999999 9.02381251,4.19999999 C8.546625,4.19999999 8.16000001,4.59299999 8.15999999,5.07749999 C8.15999999,5.095125 8.16075,5.1125625 8.16168749,5.13 L8.16150001,5.13 L8.34899999,10.7281875 C8.34899999,11.1069375 8.65125,11.413875 9.02399999,11.413875 C9.3965625,11.413875 9.69899999,11.1069375 9.69899999,10.7281875 L9.8865,5.13 L9.88612501,5.13 C9.88725001,5.1125625 9.88800001,5.095125 9.88799999,5.07749999 L9.88799999,5.0776875 Z" id="Shape"></path>
        </g>
    </g>
</svg>