<?xml version="1.0" encoding="UTF-8"?>
<svg width="30px" height="30px" viewBox="0 0 30 30" version="1.1" xmlns="http://www.w3.org/2000/svg" xmlns:xlink="http://www.w3.org/1999/xlink">
    <!-- Generator: Sketch 51.3 (57544) - http://www.bohemiancoding.com/sketch -->
    <title>椭圆形</title>
    <desc>Created with Sketch.</desc>
    <defs></defs>
    <g id="Symbols" stroke="none" stroke-width="1" fill="none" fill-rule="evenodd">
        <g id="Group-4" transform="translate(-746.000000, -30.000000)">
            <g id="分组" transform="translate(746.000000, 30.000000)">
                <g id="Group">
                    <circle id="Oval" fill="#FF0000" cx="15" cy="15" r="15"></circle>
                    <path d="M10.635,16.455 C10.05,17.025 9.42,17.58 8.73,18.12 L8.25,16.53 C10.275,14.94 11.655,13.38 12.375,11.88 L8.655,11.88 L8.655,10.455 L10.8,10.455 C10.56,9.84 10.305,9.24 10.02,8.655 L11.535,8.25 C11.88,9.06 12.15,9.795 12.36,10.455 L13.935,10.455 L13.935,11.73 C13.545,12.765 12.96,13.785 12.165,14.775 L12.165,14.835 L12.795,15.255 C13.23,14.94 13.65,14.505 14.07,13.935 L14.955,14.82 C14.595,15.3 14.205,15.705 13.785,16.02 C14.175,16.335 14.55,16.665 14.91,17.01 L14.055,18.36 C13.425,17.565 12.795,16.875 12.165,16.305 L12.165,22.185 L10.635,22.185 L10.635,16.455 Z M16.59,8.31 L18.135,8.31 L18.135,13.215 C19.47,14.055 20.835,15 22.215,16.08 L21.285,17.46 C20.04,16.35 18.99,15.465 18.135,14.835 L18.135,22.17 L16.59,22.17 L16.59,8.31 Z" id="补" fill="#FFFFFF"></path>
                </g>
            </g>
        </g>
    </g>
</svg>