<?xml version="1.0" encoding="UTF-8"?>
<svg width="40px" height="40px" viewBox="0 0 40 40" version="1.1" xmlns="http://www.w3.org/2000/svg" xmlns:xlink="http://www.w3.org/1999/xlink">
    <!-- Generator: Sketch 51.3 (57544) - http://www.bohemiancoding.com/sketch -->
    <title>失败</title>
    <desc>Created with Sketch.</desc>
    <defs></defs>
    <g id="失败" stroke="none" stroke-width="1" fill="none" fill-rule="evenodd">
        <g id="shibai-3" fill="#FF0000" fill-rule="nonzero">
            <path d="M19.9642857,0 C8.9375,0 0,8.9375 0,19.9642857 C0,30.9910714 8.9375,39.9285714 19.9642857,39.9285714 C30.9910714,39.9285714 39.9285714,30.9910714 39.9285714,19.9642857 C39.9285714,8.9375 30.9910714,0 19.9642857,0 Z M19.9642857,29.9107143 C18.8794643,29.9107143 18,29.03125 18,27.9464286 C18,26.8616071 18.8794643,25.9821429 19.9642857,25.9821429 C21.0491071,25.9821429 21.9285714,26.8616071 21.9285714,27.9464286 C21.9285714,29.03125 21.0491071,29.9107143 19.9642857,29.9107143 Z M21.9285714,10.5267857 L21.2901786,23.9598214 L18.6383929,23.9598214 C18.6383929,23.9598214 18.0267857,11.1517857 18,10.5267857 C17.96875,9.90178571 18.4732143,10.03125 18.4732143,10.03125 L21.4598214,10.03125 C22.0178571,10.0267857 21.9285714,10.5267857 21.9285714,10.5267857 Z" id="Shape"></path>
        </g>
    </g>
</svg>