<?xml version="1.0" encoding="UTF-8"?>
<svg width="100px" height="100px" viewBox="0 0 100 100" version="1.1" xmlns="http://www.w3.org/2000/svg" xmlns:xlink="http://www.w3.org/1999/xlink">
    <!-- Generator: Sketch 51.3 (57544) - http://www.bohemiancoding.com/sketch -->
    <title>办事指南</title>
    <desc>Created with Sketch.</desc>
    <defs></defs>
    <g id="办事指南" stroke="none" stroke-width="1" fill="none" fill-rule="evenodd">
        <g id="Group-17-Copy">
            <rect id="Rectangle-13" fill="#000000" opacity="0.4" x="0" y="0" width="100" height="100" rx="5"></rect>
            <g id="Group-18" transform="translate(6.000000, 14.000000)" fill="#FFFFFF" opacity="0.8">
                <g id="办事指南" transform="translate(24.000000, 0.000000)">
                    <g id="shuoming-3">
                        <path d="M34.140625,5.859375 C37.9179688,9.63671875 40,14.6601562 40,20 C40,25.3398438 37.921875,30.3632812 34.140625,34.140625 C30.3632812,37.9179688 25.3398438,40 20,40 C14.6601562,40 9.63671875,37.9179688 5.859375,34.140625 C2.078125,30.3632812 0,25.34375 0,20 C0,14.65625 2.078125,9.63671875 5.859375,5.859375 C9.63671875,2.08203125 14.6601562,0 20,0 C25.34375,0 30.3632812,2.08203125 34.140625,5.859375 Z M25.8984375,18.2695312 C26.7148437,17.1914062 27.140625,15.9140625 27.140625,14.4453125 C27.140625,12.484375 26.5195312,10.9492187 25.3085937,9.8359375 C24.0351562,8.66015625 22.3671875,8.10546875 20.2773437,8.10546875 C17.921875,8.10546875 16.09375,8.82421875 14.7851562,10.2617187 C13.4765625,11.6367187 12.8554687,13.4648437 12.8554687,15.7539062 L15.4375,15.7539062 C15.4375,14.1523437 15.796875,12.9101562 16.515625,11.9960937 C17.3007812,10.9179687 18.5078125,10.3945312 20.140625,10.3945312 C21.515625,10.3945312 22.59375,10.7539062 23.34375,11.5390625 C24.0625,12.2578125 24.4570312,13.2695312 24.4570312,14.578125 C24.4570312,15.4921875 24.1289062,16.34375 23.4765625,17.1601562 C23.28125,17.421875 22.890625,17.8164062 22.3671875,18.3359375 C20.6015625,19.90625 19.5234375,21.1445312 19.0664062,22.125 C18.6757812,22.9414062 18.4765625,23.890625 18.4765625,24.96875 L18.4765625,25.7226562 L21.09375,25.7226562 L21.09375,24.96875 C21.09375,24.0859375 21.2890625,23.3007812 21.7148437,22.5820312 C22.0429687,21.9921875 22.53125,21.40625 23.25,20.7851562 C24.6914062,19.5117187 25.5742187,18.6601562 25.8984375,18.2695312 Z M21.78125,29.9335937 C21.78125,29.3789062 21.5859375,28.921875 21.2265625,28.5625 C20.8359375,28.171875 20.34375,28.0078125 19.7890625,28.0078125 C19.2304687,28.0078125 18.7773437,28.171875 18.3828125,28.5625 C17.9921875,28.921875 17.828125,29.3789062 17.828125,29.9335937 C17.828125,30.4882812 17.9921875,30.9453125 18.3828125,31.3398437 C18.7734375,31.6992187 19.2304687,31.8945312 19.7890625,31.8945312 C20.34375,31.8945312 20.8007812,31.6992187 21.1953125,31.3398437 C21.5859375,30.9804687 21.78125,30.5234375 21.78125,29.9335937 Z" id="Shape" fill-rule="nonzero"></path>
                    </g>
                </g>
                <path d="M2.04101562,53.8847656 L16.5859375,53.8847656 L16.5859375,55.0234375 L2.04101562,55.0234375 L2.04101562,53.8847656 Z M15.9414062,53.8847656 L17.1875,53.8847656 C17.0729161,59.0983334 16.9583339,63.0657416 16.84375,65.7871094 C16.7291661,68.1933714 15.7122492,69.3964844 13.7929688,69.3964844 C12.9049435,69.3964844 11.9023493,69.3678388 10.7851562,69.3105469 C10.7135413,68.8235653 10.6132819,68.3509138 10.484375,67.8925781 C11.8164129,68.035808 12.8762981,68.1074219 13.6640625,68.1074219 C14.8385475,68.1074219 15.475911,67.4270901 15.5761719,66.0664062 C15.7050788,63.2018086 15.8268223,59.1413023 15.9414062,53.8847656 Z M3.67382812,57.4511719 L4.74804688,57.9023438 C3.94595953,60.007823 3.02214064,61.9772044 1.9765625,63.8105469 C1.63281078,63.5813791 1.28906422,63.3736988 0.9453125,63.1875 C1.99089064,61.4400954 2.90038676,59.5280052 3.67382812,57.4511719 Z M19.0996094,57.6015625 C19.7871128,59.2773521 20.4674446,61.0318919 21.140625,62.8652344 L20.0234375,63.3164062 C19.3502571,61.4400948 18.6842481,59.685555 18.0253906,58.0527344 L19.0996094,57.6015625 Z M8.421875,50.1035156 L9.66796875,50.1035156 C9.65364576,51.9082121 9.62500021,53.7486885 9.58203125,55.625 C9.51041631,59.5065298 8.95182814,62.4140528 7.90625,64.3476562 C6.94660979,66.3385516 4.92709873,68.2005122 1.84765625,69.9335938 C1.58984246,69.5182271 1.33919393,69.1386736 1.09570312,68.7949219 C4.01759273,67.2766851 5.92968299,65.5937592 6.83203125,63.7460938 C7.77734848,62.0703041 8.27864555,59.456398 8.3359375,55.9042969 C8.37890646,54.1282463 8.40755201,52.1946719 8.421875,50.1035156 Z M24.3417969,59.6855469 L40.3476562,59.6855469 L40.3476562,60.5878906 L24.3417969,60.5878906 L24.3417969,59.6855469 Z M39.6601562,59.6640625 L40.7773438,59.6640625 L40.7773438,67.1191406 L39.6601562,67.1191406 L39.6601562,59.6640625 Z M24.2988281,65.2714844 L40.2832031,65.2714844 L40.2832031,66.1738281 L24.2988281,66.1738281 L24.2988281,65.2714844 Z M22.9667969,62.4570312 L43.0761719,62.4570312 L43.0761719,63.359375 L22.9667969,63.359375 L22.9667969,62.4570312 Z M23.0527344,51.6933594 L42.9042969,51.6933594 L42.9042969,52.5957031 L23.0527344,52.5957031 L23.0527344,51.6933594 Z M32.3769531,50.0175781 L33.5800781,50.0175781 L33.5800781,67.5058594 C33.5800781,69.0670651 32.8496167,69.8476562 31.3886719,69.8476562 C30.6152305,69.8476562 29.7988324,69.8404949 28.9394531,69.8261719 C28.8391922,69.3391903 28.7389328,68.8880229 28.6386719,68.4726562 C29.3977903,68.5299482 30.2106076,68.5585938 31.0771484,68.5585938 C31.9436892,68.5585938 32.3769531,68.1289105 32.3769531,67.2695312 L32.3769531,50.0175781 Z M25.5449219,54.4433594 L26.7695312,54.4433594 L26.7695312,57.9453125 L25.5449219,57.9453125 L25.5449219,54.4433594 Z M26.2324219,54.421875 L39.7246094,54.421875 L39.7246094,55.3671875 L26.2324219,55.3671875 L26.2324219,54.421875 Z M39.1875,54.4433594 L40.4121094,54.4433594 L40.4121094,57.9453125 L39.1875,57.9453125 L39.1875,54.4433594 Z M26.2539062,56.9785156 L39.6601562,56.9785156 L39.6601562,57.9238281 L26.2539062,57.9238281 L26.2539062,56.9785156 Z M44.9238281,54.078125 L51.6269531,54.078125 L51.6269531,55.1308594 L44.9238281,55.1308594 L44.9238281,54.078125 Z M47.8242188,50.125 L49.1992188,50.125 L49.1992188,67.828125 C49.1992188,68.8020882 48.6549534,69.3964833 47.5664062,69.6113281 C47.1510396,69.6829431 46.3274801,69.7115886 45.0957031,69.6972656 C45.0384112,69.296222 44.9453131,68.8737001 44.8164062,68.4296875 C45.7044315,68.5013024 46.3847633,68.5371094 46.8574219,68.5371094 C47.5019563,68.5371094 47.8242188,68.2291697 47.8242188,67.6132812 L47.8242188,50.125 Z M51.5195312,58.9550781 C51.5338542,59.3131528 51.5624998,59.6998677 51.6054688,60.1152344 C49.3281136,60.7740918 47.1152451,61.4472622 44.9667969,62.1347656 L44.8164062,60.8886719 C47.0364694,60.2871064 49.2708221,59.6425816 51.5195312,58.9550781 Z M52.9589844,59.9648438 L54.2480469,59.9648438 L54.2480469,70.0625 L52.9589844,70.0625 L52.9589844,59.9648438 Z M53.4316406,59.9648438 L63.2285156,59.9648438 L63.2285156,61.0175781 L53.4316406,61.0175781 L53.4316406,59.9648438 Z M62.390625,59.9648438 L63.7011719,59.9648438 L63.7011719,70.0625 L62.390625,70.0625 L62.390625,59.9648438 Z M53.4960938,67.7636719 L63.1855469,67.7636719 L63.1855469,68.7949219 L53.4960938,68.7949219 L53.4960938,67.7636719 Z M53.4316406,63.875 L63.2070312,63.875 L63.2070312,64.8847656 L53.4316406,64.8847656 L53.4316406,63.875 Z M63.8945312,50.7480469 L64.3886719,51.8652344 C60.4068811,52.9537815 56.8047036,53.741534 53.5820312,54.2285156 L53.4316406,53.1328125 C57.5709842,52.4596321 61.0585796,51.6647181 63.8945312,50.7480469 Z M52.8300781,49.9746094 L54.1621094,49.9746094 L54.1621094,55.6679688 C54.1621094,56.3984412 54.5917926,56.7636719 55.4511719,56.7636719 L61.1875,56.7636719 C62.2474011,56.7636719 62.8919259,56.4270867 63.1210938,55.7539062 C63.2929696,55.1236948 63.429036,54.4147175 63.5292969,53.6269531 C63.9160176,53.813152 64.3671849,54.0065094 64.8828125,54.2070312 C64.7395826,54.7799508 64.5820321,55.3815073 64.4101562,56.0117188 C63.9947896,57.2578187 63.0136796,57.8808594 61.4667969,57.8808594 L55.515625,57.8808594 C53.7252515,57.8808594 52.8300781,57.0644613 52.8300781,55.4316406 L52.8300781,49.9746094 Z M67.0527344,52.53125 L86.96875,52.53125 L86.96875,53.6054688 L67.0527344,53.6054688 L67.0527344,52.53125 Z M71.5644531,60.9960938 L82.6074219,60.9960938 L82.6074219,62.0273438 L71.5644531,62.0273438 L71.5644531,60.9960938 Z M70.8339844,64.6484375 L83.1875,64.6484375 L83.1875,65.6796875 L70.8339844,65.6796875 L70.8339844,64.6484375 Z M76.3769531,61.5761719 L77.6445312,61.5761719 L77.6445312,69.5683594 L76.3769531,69.5683594 L76.3769531,61.5761719 Z M76.3769531,50.1679688 L77.6445312,50.1679688 L77.6445312,56.6992188 L76.3769531,56.6992188 L76.3769531,50.1679688 Z M68.3632812,56.0976562 L69.609375,56.0976562 L69.609375,69.9765625 L68.3632812,69.9765625 L68.3632812,56.0976562 Z M68.9648438,56.0976562 L84.9492188,56.0976562 L84.9492188,57.171875 L68.9648438,57.171875 L68.9648438,56.0976562 Z M84.4335938,56.0976562 L85.6796875,56.0976562 L85.6796875,67.3769531 C85.6796875,69.0813887 84.8274825,69.9335938 83.1230469,69.9335938 C82.2063756,69.9335938 81.3326864,69.9264324 80.5019531,69.9121094 C80.4589842,69.6829416 80.3730475,69.246097 80.2441406,68.6015625 C81.1464889,68.6731774 82.0703078,68.7089844 83.015625,68.7089844 C83.9609422,68.7089844 84.4335938,68.2434942 84.4335938,67.3125 L84.4335938,56.0976562 Z M73.90625,57.8164062 C74.5221385,58.5468787 75.0664039,59.2415332 75.5390625,59.9003906 L74.4863281,60.6523438 C74.0566385,59.9791633 73.5338572,59.2773474 72.9179688,58.546875 L73.90625,57.8164062 Z M79.9003906,57.7949219 L81.0605469,58.3964844 C80.4160124,59.3704476 79.7428421,60.3300734 79.0410156,61.2753906 L77.7089844,61.2753906 C78.4967487,60.1295516 79.2272102,58.9694069 79.9003906,57.7949219 Z" id="办事指南"></path>
            </g>
        </g>
    </g>
</svg>