<?xml version="1.0" encoding="UTF-8"?>
<svg width="18px" height="18px" viewBox="0 0 18 18" version="1.1" xmlns="http://www.w3.org/2000/svg" xmlns:xlink="http://www.w3.org/1999/xlink">
    <!-- Generator: Sketch 51.3 (57544) - http://www.bohemiancoding.com/sketch -->
    <title>注意</title>
    <desc>Created with Sketch.</desc>
    <defs></defs>
    <g id="Symbols" stroke="none" stroke-width="1" fill="none" fill-rule="evenodd">
        <g id="分组" transform="translate(-1.000000, -1.000000)" fill="#0589F0">
            <g id="Group">
                <g id="注意-copy-2">
                    <g id="zhuyi-3" transform="translate(1.000000, 1.000000)">
                        <path d="M9,16.6148437 C11.2875,16.6148437 13.40625,15.6023437 14.8453125,13.8820312 C15.9820312,12.5226562 16.6148437,10.8117187 16.6148437,9 C16.6148437,7.3546875 16.0921875,5.7890625 15.1382812,4.49296875 C13.7109375,2.55234375 11.4539062,1.38515625 9,1.38515625 C4.79296875,1.38515625 1.38515625,4.7953125 1.38515625,9 C1.38515625,13.2046875 4.79296875,16.6148437 9,16.6148437 Z M9,18 C4.02890625,18 0,13.9710938 0,9 C0,4.02890625 4.02890625,0 9,0 C11.8992187,0 14.56875,1.38046875 16.2539062,3.67265625 C17.38125,5.20546875 18,7.05703125 18,9 C18,11.1375 17.25,13.1625 15.9070312,14.7703125 C14.2078125,16.8023438 11.7,18 9,18 Z" id="Shape" fill-rule="nonzero"></path>
                        <path d="M8.72303783,3.92727273 L9.80801807,3.92727273 L9.80801807,11.0340957 C9.80801807,11.3153181 9.56408809,11.5417259 9.26679842,11.5417259 L8.18181818,11.5417259 L8.18181818,4.43490294 C8.18181818,4.15606381 8.42320723,3.92727273 8.72303783,3.92727273 Z M8.73320158,12.5593696 L9.81818182,12.5593696 L9.81818182,13.5650971 C9.81818182,13.8463194 9.57425184,14.0727273 9.27696217,14.0727273 L8.19198193,14.0727273 L8.19198193,13.0669998 C8.18944099,12.7881607 8.43337098,12.5593696 8.73320158,12.5593696 Z" id="Shape" fill-rule="nonzero"></path>
                    </g>
                </g>
            </g>
        </g>
    </g>
</svg>