<?xml version="1.0" encoding="UTF-8"?>
<svg width="15px" height="15px" viewBox="0 0 15 15" version="1.1" xmlns="http://www.w3.org/2000/svg" xmlns:xlink="http://www.w3.org/1999/xlink">
    <!-- Generator: Sketch 51.3 (57544) - http://www.bohemiancoding.com/sketch -->
    <title>Group 6</title>
    <desc>Created with Sketch.</desc>
    <defs></defs>
    <g id="Group-6" stroke="none" stroke-width="1" fill="none" fill-rule="evenodd">
        <g fill="#1492FF" fill-rule="nonzero" id="Combined-Shape">
            <path d="M1.17415969e-16,7.98727588 C1.17415969e-16,7.83855243 0.0528794514,7.68817649 0.158638354,7.57415517 L7.01974717,0.171031976 C7.23126498,-0.0570106585 7.57498141,-0.0570106585 7.78649922,0.171031976 L14.647608,7.57415517 C14.8591258,7.8021978 14.8591258,8.17235396 14.647608,8.4003966 C14.4360902,8.62843923 14.0923738,8.62843923 13.880856,8.4003966 L7.40312319,1.41039412 L0.925390399,8.4003966 C0.713872594,8.62843923 0.37015616,8.62843923 0.158638354,8.4003966 C0.0528794514,8.28637528 0,8.13599934 1.17415969e-16,7.98727588 Z M1.17415969e-16,13.9872759 C1.17415969e-16,13.8385524 0.0528794514,13.6881765 0.158638354,13.5741552 L7.01974717,6.17103198 C7.23126498,5.94298934 7.57498141,5.94298934 7.78649922,6.17103198 L14.647608,13.5741552 C14.8591258,13.8021978 14.8591258,14.172354 14.647608,14.4003966 C14.4360902,14.6284392 14.0923738,14.6284392 13.880856,14.4003966 L7.40312319,7.41039412 L0.925390399,14.4003966 C0.713872594,14.6284392 0.37015616,14.6284392 0.158638354,14.4003966 C0.0528794514,14.2863753 0,14.1359993 1.17415969e-16,13.9872759 Z" transform="translate(7.403123, 7.285714) scale(1, -1) translate(-7.403123, -7.285714) "></path>
        </g>
    </g>
</svg>