<?xml version="1.0" encoding="UTF-8"?>
<svg width="120px" height="120px" viewBox="0 0 120 120" version="1.1" xmlns="http://www.w3.org/2000/svg" xmlns:xlink="http://www.w3.org/1999/xlink">
    <!-- Generator: Sketch 51.3 (57544) - http://www.bohemiancoding.com/sketch -->
    <title>icon/面性/转移接续 copy</title>
    <desc>Created with Sketch.</desc>
    <defs></defs>
    <g id="icon/面性/转移接续-copy" stroke="none" stroke-width="1" fill="none" fill-rule="evenodd">
        <path d="M85.0576923,33.4982357 C85.0576923,48.6871218 72.5090715,61 57.0285145,61 C41.5483997,61 29,48.6872321 29,33.4982357 C29,18.3086878 41.5527113,6 57.0285145,6 C72.5090715,6 85.0576923,18.3122166 85.0576923,33.4982357 Z M85.0576923,33.4982357 C85.0576923,48.6871218 72.5090715,61 57.0285145,61 C41.5483997,61 29,48.6872321 29,33.4982357 C29,18.3086878 41.5527113,6 57.0285145,6 C72.5090715,6 85.0576923,18.3122166 85.0576923,33.4982357 Z" id="Shape" fill="#1492FF" fill-rule="nonzero"></path>
        <path d="M0.00495627667,110 C0.00165541222,109.833586 0,109.666917 0,109.5 C0,88.2370371 26.862915,71 60,71 C93.137085,71 120,88.2370371 120,109.5 C120,109.666917 119.998345,109.833586 119.995044,110 L0.00495627667,110 Z" id="Combined-Shape" fill="#1492FF"></path>
    </g>
</svg>