<?xml version="1.0" encoding="UTF-8"?>
<svg width="160px" height="160px" viewBox="0 0 160 160" version="1.1" xmlns="http://www.w3.org/2000/svg" xmlns:xlink="http://www.w3.org/1999/xlink">
    <!-- Generator: Sketch 51.3 (57544) - http://www.bohemiancoding.com/sketch -->
    <title>大头像 copy</title>
    <desc>Created with Sketch.</desc>
    <defs>
        <circle id="path-1" cx="80" cy="80" r="80"></circle>
    </defs>
    <g id="大头像-copy" stroke="none" stroke-width="1" fill="none" fill-rule="evenodd">
        <g id="touxiang">
            <g id="530a44efa01c4dd77eb561289d4ac161420345">
                <mask id="mask-2" fill="white">
                    <use xlink:href="#path-1"></use>
                </mask>
                <use id="Mask" fill="#1492FF" xlink:href="#path-1"></use>
                <path d="M33.03125,92.9296875 L43.90625,92.9296875 L43.90625,88.6171875 L38.515625,88.6171875 L38.515625,90.0703125 L35.234375,90.0703125 L35.234375,77.4609375 L43.90625,77.4609375 L43.90625,73.6171875 L41.65625,73.6171875 L41.65625,75.2109375 L38.375,75.2109375 L38.375,67.1953125 L33.03125,67.1953125 L33.03125,64.1015625 L38.375,64.1015625 L38.375,59.2265625 L41.65625,59.2265625 L41.65625,64.1015625 L49.765625,64.1015625 L49.765625,59.2265625 L53.046875,59.2265625 L53.046875,64.1015625 L58.4375,64.1015625 L58.4375,67.1953125 L53.046875,67.1953125 L53.046875,75.2109375 L49.765625,75.2109375 L49.765625,73.6171875 L47.28125,73.6171875 L47.28125,77.4609375 L56,77.4609375 L56,90.0703125 L52.71875,90.0703125 L52.71875,88.6171875 L47.28125,88.6171875 L47.28125,92.9296875 L57.6875,92.9296875 L57.6875,96.0234375 L47.28125,96.0234375 L47.28125,105.023438 L43.90625,105.023438 L43.90625,96.0234375 L33.03125,96.0234375 L33.03125,92.9296875 Z M56.796875,69.2109375 L62.7734375,69.2109375 C62.867188,66.0077965 62.9374998,62.8047035 62.984375,59.6015625 L66.734375,59.6015625 C66.6249995,63.10158 66.523438,66.304673 66.4296875,69.2109375 L77.46875,69.2109375 C77.2499989,78.8047355 76.9687517,87.6171473 76.625,95.6484375 C76.5312495,101.242215 74.2187727,104.023438 69.6875,103.992188 C68.1874925,103.992188 66.234387,103.914063 63.828125,103.757812 C63.6718742,102.476556 63.4218767,101.195319 63.078125,99.9140625 C65.1093852,100.289064 67.1093652,100.476562 69.078125,100.476562 C71.6093877,100.507813 72.9062497,98.8359544 72.96875,95.4609375 C73.3125017,87.9609 73.5624992,80.3672259 73.71875,72.6796875 L66.3125,72.6796875 C66.2343746,75.1640749 66.1562504,77.3984276 66.078125,79.3828125 C65.671873,91.3516223 62.4219055,100.007786 56.328125,105.351562 C55.6718717,104.132806 54.8906295,102.992193 53.984375,101.929688 C59.2969016,97.3046644 62.1249983,89.74224 62.46875,79.2421875 C62.5468754,77.0546766 62.6171872,74.8671984 62.6796875,72.6796875 L56.796875,72.6796875 L56.796875,69.2109375 Z M52.71875,80.3671875 L47.28125,80.3671875 L47.28125,85.7109375 L52.71875,85.7109375 L52.71875,80.3671875 Z M38.515625,85.7109375 L43.90625,85.7109375 L43.90625,80.3671875 L38.515625,80.3671875 L38.515625,85.7109375 Z M41.65625,70.7109375 L49.765625,70.7109375 L49.765625,67.1953125 L41.65625,67.1953125 L41.65625,70.7109375 Z M105.875,64.7109375 L124.34375,64.7109375 L124.34375,103.148438 L120.6875,103.148438 L120.6875,99.4921875 L109.53125,99.4921875 L109.53125,103.523438 L105.875,103.523438 L105.875,64.7109375 Z M103.859375,98.3671875 L100.953125,101.460938 C98.562488,99.2421764 96.2265739,97.1250101 93.9453125,95.109375 C90.9140473,99.0781448 87.2187718,102.445299 82.859375,105.210938 C82.2343719,104.210932 81.4843794,103.101569 80.609375,101.882812 C84.8593963,99.3202997 88.3671737,96.2422055 91.1328125,92.6484375 C88.3515486,90.2578005 85.6718879,88.0390727 83.09375,85.9921875 C84.4062566,81.6640409 85.562495,77.148461 86.5625,72.4453125 L80.796875,72.4453125 L80.796875,68.8828125 L87.2890625,68.8828125 C87.9140656,65.7265467 88.4687476,62.4922041 88.953125,59.1796875 L92.890625,59.7421875 C92.3593723,62.9297034 91.796878,65.976548 91.203125,68.8828125 L101.5625,68.8828125 L101.5625,72.3515625 C100.64062,80.8672301 98.8203261,87.4140396 96.1015625,91.9921875 C98.5546998,93.9765724 101.140611,96.1015512 103.859375,98.3671875 Z M120.6875,68.1796875 L109.53125,68.1796875 L109.53125,96.1171875 L120.6875,96.1171875 L120.6875,68.1796875 Z M97.859375,72.4453125 L90.4296875,72.4453125 C89.4296825,76.9140848 88.3437559,81.0390436 87.171875,84.8203125 C89.0625095,86.32032 91.0624895,87.9218665 93.171875,89.625 C95.6406373,85.3281035 97.2031217,79.6015983 97.859375,72.4453125 Z" id="勒如" fill="#FFFFFF" mask="url(#mask-2)"></path>
            </g>
        </g>
    </g>
</svg>