<?xml version="1.0" standalone="no"?><!DOCTYPE svg PUBLIC "-//W3C//DTD SVG 1.1//EN" "http://www.w3.org/Graphics/SVG/1.1/DTD/svg11.dtd"><svg t="1569827685902" class="icon" viewBox="0 0 1024 1024" version="1.1" xmlns="http://www.w3.org/2000/svg" p-id="1016" xmlns:xlink="http://www.w3.org/1999/xlink" width="200" height="200"><defs><style type="text/css"></style></defs><path d="M512 986.624a478.72 478.72 0 1 1 478.72-478.72A479.232 479.232 0 0 1 512 986.624z m0-896a417.28 417.28 0 1 0 417.28 417.28A417.792 417.792 0 0 0 512 90.624z" fill="#1296db" p-id="1017"></path><path d="M512 739.328m-38.4 0a38.4 38.4 0 1 0 76.8 0 38.4 38.4 0 1 0-76.8 0Z" fill="#1296db" p-id="1018"></path><path d="M512 655.872a30.72 30.72 0 0 1-30.72-30.72V252.928a30.72 30.72 0 0 1 61.44 0v372.224a30.72 30.72 0 0 1-30.72 30.72z" fill="#1296db" p-id="1019"></path></svg>